<?xml version="1.0" standalone="no"?>
<!DOCTYPE svg PUBLIC "-//W3C//DTD SVG 20010904//EN"
 "http://www.w3.org/TR/2001/REC-SVG-20010904/DTD/svg10.dtd">
<svg version="1.0" xmlns="http://www.w3.org/2000/svg"
 width="800.000000pt" height="400.000000pt" viewBox="0 0 800.000000 400.000000"
 preserveAspectRatio="xMidYMid meet">

<g transform="translate(0.000000,400.000000) scale(0.100000,-0.100000)"
fill="#000000" stroke="none">
<path d="M1481 3440 c-103 -13 -280 -62 -381 -104 -110 -47 -266 -145 -230
-146 14 0 45 -7 69 -16 48 -16 71 -13 71 10 0 10 -13 16 -37 18 l-38 3 45 33
c57 42 96 42 135 2 32 -33 74 -40 95 -15 13 16 40 20 40 7 0 -18 -48 -52 -73
-52 -20 0 -27 -5 -27 -20 0 -17 7 -20 39 -20 22 0 43 5 46 10 3 6 19 10 36 10
22 0 29 5 29 20 0 11 -7 20 -15 20 -13 0 -14 4 -5 20 9 16 21 20 67 20 l57 0
-26 -27 c-21 -22 -25 -32 -17 -45 6 -10 19 -18 29 -18 16 0 20 7 20 34 0 27 5
36 28 44 66 26 105 24 175 -7 56 -25 67 -34 67 -54 0 -17 7 -26 21 -30 32 -9
7 -47 -31 -47 -20 0 -31 -6 -35 -20 -7 -23 -11 -24 -73 -9 -68 17 -71 25 -19
50 43 21 45 24 31 40 -19 22 -87 15 -126 -12 -15 -10 -35 -19 -44 -19 -11 0
-15 -6 -11 -20 3 -13 0 -20 -9 -20 -8 0 -14 -4 -14 -10 0 -5 -9 -10 -20 -10
-12 0 -20 7 -20 16 0 24 -45 12 -119 -31 -54 -32 -62 -40 -59 -63 3 -27 30
-46 81 -57 23 -5 27 -10 27 -40 0 -46 22 -46 48 -1 13 23 31 36 51 41 30 6 31
9 31 56 0 40 4 51 24 64 20 13 31 14 70 4 43 -11 46 -13 46 -45 0 -39 -1 -39
47 -19 50 21 53 20 53 -23 0 -32 5 -41 25 -50 34 -16 34 -58 0 -74 -28 -12
-24 -25 11 -38 15 -6 24 -18 24 -31 0 -17 -4 -20 -25 -15 -73 18 -88 33 -60
56 12 10 13 16 4 24 -8 8 -13 8 -16 -1 -6 -15 -69 -17 -78 -3 -3 6 -17 10 -31
10 -30 0 -33 -30 -4 -37 29 -8 7 -32 -24 -26 -17 4 -30 -4 -52 -30 -16 -19
-42 -42 -59 -52 -47 -29 -135 -117 -135 -136 0 -9 -22 -31 -49 -49 -66 -42
-75 -55 -73 -101 2 -32 -1 -39 -15 -39 -27 0 -41 12 -44 40 -4 24 -8 25 -76
28 -120 5 -185 -35 -214 -131 -4 -16 -3 -40 3 -57 9 -26 15 -30 46 -30 24 0
53 10 82 30 25 16 48 30 53 30 11 0 9 -38 -4 -62 -13 -24 1 -38 37 -38 27 0
34 -17 34 -80 l0 -49 57 -7 c57 -7 57 -7 90 31 31 36 34 37 78 31 29 -5 48
-14 55 -27 8 -14 21 -19 55 -19 24 0 45 5 47 11 6 19 38 -3 69 -47 27 -40 34
-44 72 -44 49 0 67 -20 76 -84 5 -34 11 -40 51 -57 26 -10 71 -18 107 -18 58
-1 63 -3 79 -31 10 -16 31 -34 47 -39 24 -9 27 -14 22 -33 -4 -13 -20 -40 -36
-60 -24 -30 -30 -51 -38 -120 -8 -71 -13 -86 -36 -105 -17 -15 -39 -23 -64
-23 -53 0 -65 -18 -57 -81 7 -50 6 -53 -37 -108 -24 -31 -49 -66 -56 -78 -14
-27 -55 -50 -107 -61 -37 -7 -60 -32 -30 -32 25 0 29 -20 8 -43 -24 -27 -18
-47 15 -47 24 0 25 -2 18 -49 -6 -46 -5 -51 19 -66 14 -10 26 -26 26 -36 0
-16 -8 -19 -41 -19 -54 0 -115 48 -158 126 -27 47 -32 65 -30 113 2 46 -2 64
-21 88 -20 28 -21 36 -13 87 8 45 7 56 -4 56 -10 0 -13 26 -13 120 l0 120 -42
30 c-23 17 -52 33 -65 36 -13 4 -23 14 -23 24 0 9 -25 48 -55 86 l-54 68 6 61
c5 53 10 64 40 90 30 26 34 35 31 70 l-3 40 -54 5 c-49 5 -58 10 -95 52 -32
36 -52 50 -88 59 -37 9 -48 16 -48 31 0 18 -5 19 -34 14 -59 -11 -124 11 -151
52 -17 24 -22 44 -18 60 4 17 -4 37 -30 75 -20 29 -39 71 -43 95 -4 28 -12 42
-22 42 -22 0 -9 -73 22 -121 33 -49 33 -69 1 -69 -40 0 -85 79 -85 151 0 50
-3 57 -25 67 -17 8 -25 20 -25 37 0 49 -17 24 -43 -62 -55 -183 -62 -227 -62
-418 1 -196 12 -273 65 -436 68 -209 171 -373 339 -540 203 -203 431 -325 721
-385 119 -25 383 -25 500 0 192 41 369 114 524 217 72 48 286 241 286 259 0 4
-9 10 -20 13 -16 4 -20 14 -20 49 0 31 -7 54 -25 78 -20 27 -25 46 -25 90 0
44 -4 61 -20 75 -26 24 -25 55 4 114 l25 48 -50 87 c-47 82 -49 89 -43 137 8
58 -1 69 -52 69 -17 0 -37 7 -44 15 -14 16 -70 20 -86 6 -5 -5 -48 -12 -95
-15 l-86 -7 -67 74 c-65 73 -66 75 -66 131 0 38 5 63 15 72 21 21 19 41 -5 47
-41 11 -23 44 55 102 70 52 75 58 75 93 0 33 4 40 37 57 24 13 51 19 79 17 24
-2 54 3 71 12 17 8 64 18 106 22 l77 7 0 -40 0 -40 73 -21 c92 -27 91 -27 95
-2 5 30 66 27 108 -5 26 -20 44 -25 89 -25 l57 0 -7 33 c-14 63 -33 87 -69 87
-37 0 -61 21 -71 63 -4 15 -10 27 -14 27 -16 -1 -29 -18 -36 -47 -3 -18 -10
-33 -15 -33 -15 0 -50 52 -50 74 0 31 -69 96 -103 96 -15 0 -27 -2 -27 -5 0
-21 29 -56 60 -74 34 -19 37 -23 31 -53 -6 -29 -11 -33 -41 -33 -18 0 -35 6
-37 13 -3 7 5 12 21 12 39 0 32 13 -29 54 -30 20 -55 41 -55 48 0 6 -8 4 -18
-5 -10 -10 -32 -17 -48 -17 -23 0 -36 -10 -59 -42 -16 -23 -33 -50 -37 -60 -6
-14 -19 -18 -66 -18 -75 0 -93 13 -95 72 -1 26 2 50 6 55 5 4 38 8 75 9 68 1
89 14 59 37 -11 8 -14 21 -10 40 4 22 12 28 43 33 27 4 42 14 54 36 20 34 57
50 101 46 32 -3 35 0 35 33 0 18 -4 20 -26 15 -21 -6 -32 0 -59 30 -41 44 -35
66 25 90 21 9 41 22 44 29 13 35 -288 221 -444 275 -189 64 -445 93 -629 70z
m869 -471 c0 -29 18 -60 48 -86 37 -31 16 -53 -49 -53 -43 0 -49 3 -49 21 0
12 8 23 20 26 28 7 25 18 -10 43 -34 24 -36 32 -14 54 23 23 54 20 54 -5z
m-66 -45 c37 -14 -5 -73 -51 -74 -37 0 -24 57 17 73 8 3 16 6 17 6 1 1 8 -2
17 -5z m-735 -189 c-27 -28 -54 -32 -63 -10 -4 11 1 15 19 15 14 0 25 5 25 10
0 6 9 10 21 10 21 0 21 0 -2 -25z m-97 -27 c-15 -15 -26 -4 -18 18 5 13 9 15
18 6 9 -9 9 -15 0 -24z"/>
<path d="M7120 3196 c-108 -30 -204 -106 -249 -199 -73 -151 -40 -361 74 -471
120 -118 328 -147 490 -71 64 31 148 117 175 181 84 195 17 427 -150 518 -99
54 -236 71 -340 42z m173 -190 c147 -61 140 -337 -9 -386 -107 -36 -204 54
-204 187 0 73 14 119 49 157 48 52 105 67 164 42z"/>
<path d="M3260 2810 l0 -381 113 3 112 3 5 195 5 195 69 -128 69 -128 46 3 46
3 70 130 70 130 3 -202 2 -203 115 0 115 0 0 380 0 380 -118 0 -117 0 -90
-180 c-49 -99 -92 -180 -95 -180 -3 0 -47 81 -98 180 l-93 180 -115 0 -114 0
0 -380z"/>
<path d="M4240 2948 c0 -293 8 -332 81 -412 178 -195 548 -151 651 78 22 48
23 65 26 314 l3 262 -125 0 -126 0 0 -235 c0 -247 -5 -280 -47 -317 -28 -26
-101 -33 -144 -15 -64 26 -69 51 -69 326 l0 241 -125 0 -125 0 0 -242z"/>
<path d="M5140 2810 l0 -380 95 0 95 0 0 195 c0 107 3 195 8 195 4 0 74 -88
156 -195 l150 -196 110 3 111 3 3 378 2 377 -100 0 -100 0 -2 -202 -3 -203
-74 100 c-40 55 -108 146 -150 202 l-76 102 -112 1 -113 0 0 -380z"/>
<path d="M6020 2810 l0 -380 189 0 c103 0 211 4 240 10 125 23 239 115 282
228 29 75 32 205 6 277 -37 107 -134 195 -251 230 -37 11 -104 15 -258 15
l-208 0 0 -380z m372 180 c78 -22 132 -122 113 -212 -22 -101 -79 -148 -179
-148 l-66 0 0 185 0 185 48 0 c26 0 63 -5 84 -10z"/>
<path d="M1000 3151 c0 -11 67 -24 80 -16 6 4 8 11 5 16 -8 12 -85 12 -85 0z"/>
<path d="M6845 2275 c-229 -50 -419 -220 -485 -433 -90 -289 -3 -604 211 -769
122 -94 235 -133 410 -140 236 -10 398 46 539 185 132 131 188 264 197 462 4
95 2 130 -16 202 -62 259 -246 439 -503 492 -93 19 -269 20 -353 1z m260 -332
c215 -73 264 -449 80 -611 -118 -103 -297 -71 -382 68 -41 67 -57 144 -50 245
7 106 36 183 93 239 71 72 162 92 259 59z"/>
<path d="M5700 1610 l0 -660 220 0 220 0 0 660 0 660 -220 0 -220 0 0 -660z"/>
<path d="M3280 1610 l0 -650 205 0 205 0 0 255 0 255 230 0 230 0 0 120 0 120
-230 0 -230 0 0 135 0 135 245 0 245 0 0 140 0 140 -450 0 -450 0 0 -650z"/>
<path d="M4370 1610 l0 -650 205 0 205 0 0 245 0 245 48 0 48 0 28 -116 c58
-235 146 -346 311 -388 91 -24 276 -16 308 14 5 4 9 74 9 156 l0 149 -49 -3
c-63 -4 -131 13 -162 41 -30 28 -48 69 -65 152 l-14 65 57 32 c133 76 193 176
194 324 0 66 -5 91 -26 137 -33 74 -101 138 -190 182 -117 57 -183 65 -568 65
l-339 0 0 -650z m677 351 c50 -23 63 -45 63 -106 0 -93 -79 -135 -250 -135
l-80 0 0 130 0 130 113 0 c88 0 121 -4 154 -19z"/>
</g>
</svg>
